<svg width="20" height="16" viewBox="0 0 20 16" fill="none" xmlns="http://www.w3.org/2000/svg">
<path id="&#226;&#128;&#156;" d="M0 16V10.713C0 9.36811 0.141346 8.09275 0.424031 6.88695C0.706717 5.68116 1.17786 4.52174 1.83746 3.40869C2.54417 2.24927 3.4629 1.11304 4.59364 0L7.49116 2.29565C6.64311 3.17681 5.95996 4.03478 5.44171 4.86956C4.97056 5.65797 4.61722 6.44638 4.38164 7.23478C4.19319 8.02319 4.09895 8.81159 4.09895 9.6L2.33215 8.27826H7.84453V16H0ZM12.1555 16V10.713C12.1555 9.36811 12.2968 8.09275 12.5795 6.88695C12.8622 5.68116 13.3333 4.52174 13.9929 3.40869C14.6996 2.24927 15.6184 1.11304 16.7491 0L19.6467 2.29565C18.7986 3.17681 18.1154 4.03478 17.5972 4.86956C17.126 5.65797 16.7727 6.44638 16.5371 7.23478C16.3487 8.02319 16.2544 8.81159 16.2544 9.6L14.4876 8.27826H20V16H12.1555Z" fill="#FFA500"/>
</svg>
